<?xml version="1.0" standalone="no"?><!DOCTYPE svg PUBLIC "-//W3C//DTD SVG 1.1//EN" "http://www.w3.org/Graphics/SVG/1.1/DTD/svg11.dtd"><svg t="1732427318978" class="icon" viewBox="0 0 1024 1024" version="1.1" xmlns="http://www.w3.org/2000/svg" p-id="1610" data-darkreader-inline-fill="" xmlns:xlink="http://www.w3.org/1999/xlink" width="200" height="200"><path d="M977.443336 162.922277c0-66.37883-18.355189-120.289983-53.218505-155.845947A23.088289 23.088289 0 0 0 906.331408 0.034402 23.088289 23.088289 0 0 0 889.246074 8.923393L426.095005 605.178445H209.411417a70.188397 70.188397 0 0 0-69.264866 69.264866 69.264866 69.264866 0 0 0 46.176577 65.570739v40.404505A23.088289 23.088289 0 0 1 173.509128 801.198015l-88.312704 43.98319A69.264866 69.264866 0 0 0 46.523541 907.635026v46.176577a69.264866 69.264866 0 0 0 69.842073 69.264865h418.936996a69.264866 69.264866 0 0 0 69.264866-69.264865v-46.176577A69.264866 69.264866 0 0 0 566.010034 845.181205l-87.620055-43.98319a23.088289 23.088289 0 0 1-12.929442-20.77946v-39.827297a66.725154 66.725154 0 0 0 25.743442-16.161802 68.456776 68.456776 0 0 0 20.77946-49.524379 69.264866 69.264866 0 0 0-34.632433-60.029551l60.144992-79.539154h12.929441A449.413537 449.413537 0 0 0 866.157785 409.389758l1.616181-1.385297a24.127262 24.127262 0 0 0 8.080901-17.893424 23.088289 23.088289 0 0 0-7.96546-17.547099l-25.858883-23.088289 56.219983-19.278721a30.591982 30.591982 0 0 0 11.544144-7.157369 220.83948 220.83948 0 0 0 67.648685-160.117282zM193.249615 658.050626a22.164757 22.164757 0 0 1 16.161802-6.695604h181.473948l-34.632433 46.176578H209.411417a23.088289 23.088289 0 0 1-23.088289-23.088289 23.088289 23.088289 0 0 1 6.926487-16.392685zM427.480302 814.589223h-101.473028l52.872181-69.264866h40.058181v35.094198a69.264866 69.264866 0 0 0 8.542666 34.170668z m-160.117281 0h-43.867748a70.765604 70.765604 0 0 0 8.888991-34.632433v-35.20964h87.735497z m226.496111 46.176577l51.371442 25.743442a23.088289 23.088289 0 0 1 12.929442 20.779459v46.176577a23.088289 23.088289 0 0 1-23.088289 23.088289H116.365614a23.088289 23.088289 0 0 1-23.088289-23.088289v-46.176577a23.088289 23.088289 0 0 1 13.044883-20.779459l51.371442-25.743442zM458.303168 691.528644a22.39564 22.39564 0 0 1-16.161802 6.695604h-28.052271l34.632433-45.253045a23.088289 23.088289 0 0 1 9.927964 38.557441zM879.202669 288.638009c-11.544144 3.694126-35.902289 12.121352-89.928885 30.938306a23.088289 23.088289 0 0 0-7.734576 39.480974l36.710379 32.092721a401.62078 401.62078 0 0 1-244.274094 97.548019l333.510329-427.133338a202.484291 202.484291 0 0 1 23.088289 101.588469A173.854813 173.854813 0 0 1 879.202669 288.638009z" fill="#bfbfbf" p-id="1611" data-darkreader-inline-fill="" style="--darkreader-inline-fill: #46494a;"></path></svg>